<?xml version="1.0" encoding="UTF-8" standalone="no"?>
<svg
   width="137.78955"
   height="48"
   viewBox="0 0 137.78955 48"
   version="1.1"
   id="svg21"
   sodipodi:docname="logo-dark.svg"
   inkscape:version="1.1.2 (0a00cf5339, 2022-02-04, custom)"
   xmlns:inkscape="http://www.inkscape.org/namespaces/inkscape"
   xmlns:sodipodi="http://sodipodi.sourceforge.net/DTD/sodipodi-0.dtd"
   xmlns:xlink="http://www.w3.org/1999/xlink"
   xmlns="http://www.w3.org/2000/svg"
   xmlns:svg="http://www.w3.org/2000/svg">
  <sodipodi:namedview
     id="namedview23"
     pagecolor="#ffffff"
     bordercolor="#666666"
     borderopacity="1.0"
     inkscape:pageshadow="2"
     inkscape:pageopacity="0.0"
     inkscape:pagecheckerboard="0"
     showgrid="false"
     inkscape:zoom="3.0790087"
     inkscape:cx="38.161633"
     inkscape:cy="21.273081"
     inkscape:window-width="1920"
     inkscape:window-height="1046"
     inkscape:window-x="0"
     inkscape:window-y="0"
     inkscape:window-maximized="1"
     inkscape:current-layer="svg21" />
  <defs
     id="defs4">
    <path
       id="a"
       d="M 6,8 C 4.9,8 4,8.9 4,10 4,11.1 4.9,12 6,12 7.1,12 8,11.1 8,10 8,8.9 7.1,8 6,8 Z M 2,4 C 0.9,4 0,4.9 0,6 0,7.1 0.9,8 2,8 3.1,8 4,7.1 4,6 4,4.9 3.1,4 2,4 Z m 0,8 c -1.1,0 -2,0.9 -2,2 0,1.1 0.9,2 2,2 1.1,0 2,-0.9 2,-2 C 4,12.9 3.1,12 2,12 Z M 14,4 c 1.1,0 2,-0.9 2,-2 0,-1.1 -0.9,-2 -2,-2 -1.1,0 -2,0.9 -2,2 0,1.1 0.9,2 2,2 z m -4,8 c -1.1,0 -2,0.9 -2,2 0,1.1 0.9,2 2,2 1.1,0 2,-0.9 2,-2 0,-1.1 -0.9,-2 -2,-2 z m 4,-4 c -1.1,0 -2,0.9 -2,2 0,1.1 0.9,2 2,2 1.1,0 2,-0.9 2,-2 C 16,8.9 15.1,8 14,8 Z M 10,4 C 8.9,4 8,4.9 8,6 8,7.1 8.9,8 10,8 11.1,8 12,7.1 12,6 12,4.9 11.1,4 10,4 Z M 6,0 C 4.9,0 4,0.9 4,2 4,3.1 4.9,4 6,4 7.1,4 8,3.1 8,2 8,0.9 7.1,0 6,0 Z" />
    <path
       id="c"
       d="M 0,0 H 50 V 50 H 0 Z" />
  </defs>
  <text
     xml:space="preserve"
     style="font-size:40px;line-height:1.25;font-family:'Beardsons Extras';-inkscape-font-specification:'Beardsons Extras'"
     x="66.421471"
     y="47.341942"
     id="text3165"><tspan
       sodipodi:role="line"
       id="tspan3163"
       x="66.421471"
       y="47.341942" /></text>
  <g
     fill="none"
     fill-rule="evenodd"
     id="g19">
    <path
       fill="#00d69f"
       d="M 0,0 H 48 V 48 H 0 Z"
       id="path6" />
    <g
       transform="translate(16,16)"
       id="g15">
      <mask
         id="b"
         fill="#ffffff">
        <use
           xlink:href="#a"
           id="use8"
           x="0"
           y="0"
           width="100%"
           height="100%" />
      </mask>
      <g
         mask="url(#b)"
         id="g13">
        <use
           fill="#ffffff"
           transform="translate(-17,-17)"
           xlink:href="#c"
           id="use11"
           x="0"
           y="0"
           width="100%"
           height="100%" />
      </g>
    </g>
  </g>
  <g
     aria-label="Sipend"
     id="text4621"
     style="font-size:25.175px;line-height:1.25;font-family:'Beardsons Extras';-inkscape-font-specification:'Beardsons Extras';letter-spacing:1px;stroke-width:0.629375">
    <path
       id="path2673"
       style="font-weight:bold;font-family:'Product Sans';-inkscape-font-specification:'Product Sans Bold'"
       d="m 132.60833,31.990272 h -0.2014 q -0.45315,0.780425 -1.4098,1.334275 -0.95665,0.55385 -2.36645,0.55385 -1.18323,0 -2.26575,-0.478325 -1.05735,-0.5035 -1.88813,-1.35945 -0.8056,-0.881125 -1.28392,-2.089525 -0.47833,-1.208399 -0.47833,-2.643374 0,-1.434975 0.47833,-2.643375 0.47832,-1.2084 1.28392,-2.06435 0.83078,-0.881125 1.88813,-1.35945 1.08252,-0.5035 2.26575,-0.5035 1.4098,0 2.36645,0.55385 0.95665,0.55385 1.4098,1.334275 h 0.2014 l -0.2014,-1.76225 v -5.412625 h 3.29792 v 18.025299 h -3.09652 z m -3.29793,-1.15805 q 0.65455,0 1.23358,-0.226575 0.6042,-0.25175 1.05735,-0.7049 0.45315,-0.453149 0.73007,-1.107699 0.27693,-0.65455 0.27693,-1.485325 0,-0.830775 -0.27693,-1.485325 -0.27692,-0.65455 -0.73007,-1.1077 -0.45315,-0.45315 -1.05735,-0.679725 -0.57903,-0.25175 -1.23358,-0.25175 -0.65455,0 -1.25875,0.25175 -0.57902,0.25175 -1.03217,0.7049 -0.45315,0.45315 -0.73008,1.1077 -0.27692,0.65455 -0.27692,1.46015 0,0.8056 0.27692,1.46015 0.27693,0.65455 0.73008,1.107699 0.45315,0.45315 1.03217,0.7049 0.6042,0.25175 1.25875,0.25175 z m -18.24486,-8.081174 h 0.2014 q 0.57902,-0.931475 1.56085,-1.46015 0.98182,-0.55385 2.24057,-0.55385 1.15805,0 2.03918,0.377625 0.88112,0.377625 1.43497,1.082525 0.57903,0.679725 0.85595,1.66155 0.3021,0.95665 0.3021,2.139875 v 7.476974 h -3.29792 v -7.074174 q 0,-1.334275 -0.6042,-1.96365 -0.57903,-0.65455 -1.7119,-0.65455 -0.67973,0 -1.2084,0.3021 -0.5035,0.276925 -0.88113,0.780425 -0.35245,0.478325 -0.55385,1.15805 -0.17622,0.65455 -0.17622,1.4098 v 6.041999 h -3.29793 V 21.139848 h 3.09653 z m -6.41262,7.753899 q -0.85595,1.5105 -2.3161,2.441975 -1.43498,0.931475 -3.5245,0.931475 -1.4098,0 -2.6182,-0.478325 -1.183225,-0.5035 -2.06435,-1.384625 -0.881125,-0.881125 -1.384625,-2.06435 -0.478325,-1.208399 -0.478325,-2.643374 0,-1.334275 0.478325,-2.5175 0.478325,-1.2084 1.334275,-2.089525 0.85595,-0.9063 2.014,-1.434975 1.183225,-0.528675 2.593025,-0.528675 1.485325,0 2.643375,0.5035 1.15805,0.478325 1.93847,1.35945 0.78043,0.85595 1.18323,2.039175 0.4028,1.183225 0.4028,2.56785 0,0.176225 0,0.3021 -0.0252,0.15105 -0.0252,0.276925 -0.0252,0.125875 -0.0252,0.276925 h -9.289575 q 0.1007,0.75525 0.4028,1.3091 0.327275,0.528674 0.780425,0.906299 0.478325,0.35245 1.032175,0.528675 0.55385,0.15105 1.132875,0.15105 1.132875,0 1.86295,-0.5035 0.75525,-0.528675 1.18322,-1.309099 z m -2.99583,-4.783249 q -0.0252,-0.327275 -0.22657,-0.730075 -0.17623,-0.4028 -0.55385,-0.75525 -0.35245,-0.35245 -0.9063,-0.579025 -0.528675,-0.226575 -1.283925,-0.226575 -1.05735,0 -1.86295,0.6042 -0.8056,0.6042 -1.132875,1.686725 z m -24.790386,-4.58185 h 3.096525 v 1.485325 h 0.2014 q 0.45315,-0.780425 1.4098,-1.334275 0.95665,-0.55385 2.36645,-0.55385 1.183225,0 2.240575,0.5035 1.082524,0.478325 1.888124,1.35945 0.830775,0.85595 1.3091,2.06435 0.478325,1.2084 0.478325,2.643375 0,1.434975 -0.478325,2.643374 -0.478325,1.2084 -1.3091,2.089525 -0.8056,0.85595 -1.888124,1.35945 -1.05735,0.478325 -2.240575,0.478325 -1.4098,0 -2.36645,-0.55385 -0.95665,-0.55385 -1.4098,-1.334275 h -0.2014 l 0.2014,1.76225 v 5.160875 h -3.297925 z m 6.39445,9.692374 q 0.65455,0 1.233575,-0.25175 0.6042,-0.25175 1.05735,-0.7049 0.45315,-0.453149 0.730075,-1.107699 0.276925,-0.65455 0.276925,-1.46015 0,-0.8056 -0.276925,-1.46015 -0.276925,-0.65455 -0.730075,-1.1077 -0.45315,-0.45315 -1.05735,-0.7049 -0.579025,-0.25175 -1.233575,-0.25175 -0.65455,0 -1.25875,0.25175 -0.579025,0.226575 -1.032175,0.679725 -0.45315,0.45315 -0.730075,1.1077 -0.276925,0.65455 -0.276925,1.485325 0,0.830775 0.276925,1.485325 0.276925,0.65455 0.730075,1.107699 0.45315,0.45315 1.032175,0.7049 0.6042,0.226575 1.25875,0.226575 z M 71.284834,19.352423 q -0.427975,0 -0.830775,-0.15105 -0.377625,-0.176225 -0.679725,-0.45315 -0.276925,-0.3021 -0.45315,-0.679725 -0.15105,-0.377625 -0.15105,-0.830775 0,-0.45315 0.15105,-0.830775 0.176225,-0.377625 0.45315,-0.65455 0.3021,-0.3021 0.679725,-0.45315 0.4028,-0.176225 0.830775,-0.176225 0.881125,0 1.5105,0.629375 0.629375,0.6042 0.629375,1.485325 0,0.881125 -0.629375,1.5105 -0.629375,0.6042 -1.5105,0.6042 z M 69.648459,33.475597 V 21.139848 h 3.297925 v 12.335749 z m -9.760919,0.4028 q -1.15805,0 -2.2154,-0.327275 -1.05735,-0.327275 -1.938475,-0.981825 -0.881125,-0.65455 -1.535675,-1.586025 -0.65455,-0.95665 -1.032175,-2.215399 l 3.197225,-1.25875 q 0.35245,1.35945 1.233575,2.265749 0.881125,0.881125 2.3161,0.881125 0.528675,0 1.007,-0.125875 0.5035,-0.15105 0.881125,-0.4028 0.4028,-0.276925 0.629375,-0.679724 0.226575,-0.4028 0.226575,-0.931475 0,-0.5035 -0.176225,-0.9063 -0.176225,-0.4028 -0.6042,-0.75525 -0.4028,-0.35245 -1.082525,-0.679725 -0.65455,-0.327275 -1.636375,-0.679725 l -1.1077,-0.4028 q -0.730075,-0.25175 -1.485325,-0.679725 -0.730075,-0.427975 -1.334275,-1.032175 -0.6042,-0.6042 -1.007,-1.4098 -0.377625,-0.830775 -0.377625,-1.86295 0,-1.05735 0.4028,-1.96365 0.427975,-0.931475 1.183225,-1.6112 0.780425,-0.7049 1.837775,-1.082525 1.082525,-0.4028 2.391625,-0.4028 1.35945,0 2.341275,0.377625 1.007,0.35245 1.686725,0.931475 0.7049,0.55385 1.132875,1.233575 0.427975,0.679725 0.629375,1.283925 l -2.995825,1.25875 q -0.25175,-0.75525 -0.931475,-1.35945 -0.65455,-0.6042 -1.8126,-0.6042 -1.1077,0 -1.837775,0.528675 -0.730075,0.5035 -0.730075,1.334275 0,0.8056 0.7049,1.384625 0.7049,0.55385 2.240575,1.082525 l 1.132875,0.377625 q 1.082525,0.377625 1.96365,0.881125 0.9063,0.478325 1.535675,1.15805 0.65455,0.679725 0.981825,1.56085 0.35245,0.85595 0.35245,1.988825 0,1.409799 -0.579025,2.441974 -0.55385,1.007 -1.434975,1.66155 -0.881125,0.65455 -1.988825,0.981825 -1.1077,0.327275 -2.16505,0.327275 z" />
  </g>
</svg>
