<?xml version="1.0" encoding="UTF-8" standalone="no"?>
<svg
   width="140.16907"
   height="48"
   viewBox="0 0 140.16907 48"
   version="1.1"
   id="svg21"
   sodipodi:docname="logo.svg"
   inkscape:version="1.1.2 (0a00cf5339, 2022-02-04, custom)"
   xmlns:inkscape="http://www.inkscape.org/namespaces/inkscape"
   xmlns:sodipodi="http://sodipodi.sourceforge.net/DTD/sodipodi-0.dtd"
   xmlns:xlink="http://www.w3.org/1999/xlink"
   xmlns="http://www.w3.org/2000/svg"
   xmlns:svg="http://www.w3.org/2000/svg">
  <sodipodi:namedview
     id="namedview23"
     pagecolor="#ffffff"
     bordercolor="#666666"
     borderopacity="1.0"
     inkscape:pageshadow="2"
     inkscape:pageopacity="0.0"
     inkscape:pagecheckerboard="0"
     showgrid="false"
     inkscape:zoom="2.129939"
     inkscape:cx="86.622198"
     inkscape:cy="26.057084"
     inkscape:window-width="1920"
     inkscape:window-height="1046"
     inkscape:window-x="0"
     inkscape:window-y="0"
     inkscape:window-maximized="1"
     inkscape:current-layer="svg21" />
  <defs
     id="defs4">
    <path
       id="a"
       d="M 6,8 C 4.9,8 4,8.9 4,10 4,11.1 4.9,12 6,12 7.1,12 8,11.1 8,10 8,8.9 7.1,8 6,8 Z M 2,4 C 0.9,4 0,4.9 0,6 0,7.1 0.9,8 2,8 3.1,8 4,7.1 4,6 4,4.9 3.1,4 2,4 Z m 0,8 c -1.1,0 -2,0.9 -2,2 0,1.1 0.9,2 2,2 1.1,0 2,-0.9 2,-2 C 4,12.9 3.1,12 2,12 Z M 14,4 c 1.1,0 2,-0.9 2,-2 0,-1.1 -0.9,-2 -2,-2 -1.1,0 -2,0.9 -2,2 0,1.1 0.9,2 2,2 z m -4,8 c -1.1,0 -2,0.9 -2,2 0,1.1 0.9,2 2,2 1.1,0 2,-0.9 2,-2 0,-1.1 -0.9,-2 -2,-2 z m 4,-4 c -1.1,0 -2,0.9 -2,2 0,1.1 0.9,2 2,2 1.1,0 2,-0.9 2,-2 C 16,8.9 15.1,8 14,8 Z M 10,4 C 8.9,4 8,4.9 8,6 8,7.1 8.9,8 10,8 11.1,8 12,7.1 12,6 12,4.9 11.1,4 10,4 Z M 6,0 C 4.9,0 4,0.9 4,2 4,3.1 4.9,4 6,4 7.1,4 8,3.1 8,2 8,0.9 7.1,0 6,0 Z" />
    <path
       id="c"
       d="M 0,0 H 50 V 50 H 0 Z" />
  </defs>
  <g
     fill="none"
     fill-rule="evenodd"
     id="g19">
    <path
       fill="#00d69f"
       d="M 0,0 H 48 V 48 H 0 Z"
       id="path6" />
    <g
       transform="translate(16,16)"
       id="g15">
      <mask
         id="b"
         fill="#ffffff">
        <use
           xlink:href="#a"
           id="use8"
           x="0"
           y="0"
           width="100%"
           height="100%" />
      </mask>
      <g
         mask="url(#b)"
         id="g13">
        <use
           fill="#ffffff"
           transform="translate(-17,-17)"
           xlink:href="#c"
           id="use11"
           x="0"
           y="0"
           width="100%"
           height="100%" />
      </g>
    </g>
  </g>
  <text
     xml:space="preserve"
     style="font-size:25.175px;line-height:1.25;font-family:'Beardsons Extras';-inkscape-font-specification:'Beardsons Extras';letter-spacing:1px;stroke-width:0.629375;fill:#ffffff"
     x="52.573994"
     y="33.97823"
     id="text4621"><tspan
       sodipodi:role="line"
       id="tspan4619"
       x="52.573994"
       y="33.97823"
       style="font-style:normal;font-variant:normal;font-weight:bold;font-stretch:normal;font-family:'Product Sans';-inkscape-font-specification:'Product Sans Bold';stroke-width:0.629375;fill:#ffffff">Sipend</tspan></text>
</svg>
